<svg width="512" height="512" viewBox="0 0 512 512" fill="none" xmlns="http://www.w3.org/2000/svg">
<rect width="512" height="512" rx="80" fill="url(#paint0_linear_209_32)"/>
<g filter="url(#filter0_d_209_32)">
<path d="M211.91 446C210.636 446 209.349 445.768 208.11 445.288C203.769 443.601 201.057 439.254 201.452 434.612L212.23 308.016H101.661C98.2117 308.016 94.9824 306.322 93.0223 303.483C91.0622 300.644 90.6213 297.024 91.8437 293.798L175.567 72.7799C177.113 68.6993 181.021 66 185.384 66H358.004C361.524 66 364.808 67.7634 366.753 70.6966C368.698 73.6297 369.045 77.3429 367.675 80.5832L331.011 167.352H410.339C414.34 167.352 417.991 169.626 419.758 173.216C421.526 176.805 421.097 181.087 418.656 184.256L382.423 231.302C378.885 235.897 372.294 236.751 367.701 233.214C363.107 229.676 362.251 223.085 365.789 218.491L389.003 188.35H315.177C311.657 188.35 308.373 186.586 306.428 183.653C304.483 180.72 304.136 177.007 305.506 173.766L342.172 86.9957H192.634L116.864 287.019H223.66C226.6 287.019 229.404 288.252 231.392 290.415C233.38 292.58 234.37 295.478 234.12 298.407L225.405 400.776L315.924 283.241C319.463 278.647 326.054 277.793 330.647 281.329C335.241 284.867 336.096 291.459 332.559 296.052L220.229 441.907C218.197 444.545 215.097 446 211.91 446Z" fill="white"/>
<path d="M269.379 255.525H162.472L214.382 118.49H293.895L251.069 219.844H323.37L258.629 316.874L269.379 255.525Z" fill="white"/>
<path d="M258.626 327.373C257.32 327.373 255.999 327.13 254.726 326.619C250.117 324.773 247.431 319.952 248.288 315.062L256.882 266.023H162.473C159.024 266.023 155.794 264.329 153.834 261.49C151.874 258.651 151.433 255.031 152.656 251.806L204.564 114.771C206.109 110.691 210.018 107.991 214.382 107.991H293.896C297.416 107.991 300.7 109.755 302.645 112.688C304.59 115.621 304.937 119.334 303.566 122.575L266.902 209.344H323.371C327.243 209.344 330.801 211.476 332.626 214.89C334.453 218.304 334.252 222.448 332.102 225.668L267.36 322.7C265.365 325.691 262.051 327.373 258.626 327.373ZM177.674 245.027H269.379C272.48 245.027 275.422 246.398 277.417 248.773C279.411 251.148 280.254 254.283 279.719 257.337L277.577 269.561L303.746 230.341H251.07C247.549 230.341 244.265 228.578 242.321 225.645C240.376 222.711 240.03 218.998 241.4 215.758L278.064 128.989H221.632L177.674 245.027Z" fill="white"/>
</g>
<defs>
<filter id="filter0_d_209_32" x="71.1626" y="54" width="369.675" height="420" filterUnits="userSpaceOnUse" color-interpolation-filters="sRGB">
<feFlood flood-opacity="0" result="BackgroundImageFix"/>
<feColorMatrix in="SourceAlpha" type="matrix" values="0 0 0 0 0 0 0 0 0 0 0 0 0 0 0 0 0 0 127 0" result="hardAlpha"/>
<feOffset dy="8"/>
<feGaussianBlur stdDeviation="10"/>
<feComposite in2="hardAlpha" operator="out"/>
<feColorMatrix type="matrix" values="0 0 0 0 0 0 0 0 0 0 0 0 0 0 0 0 0 0 0.2 0"/>
<feBlend mode="normal" in2="BackgroundImageFix" result="effect1_dropShadow_209_32"/>
<feBlend mode="normal" in="SourceGraphic" in2="effect1_dropShadow_209_32" result="shape"/>
</filter>
<linearGradient id="paint0_linear_209_32" x1="0" y1="0" x2="512" y2="512" gradientUnits="userSpaceOnUse">
<stop stop-color="#D397FA"/>
<stop offset="1" stop-color="#8364E8"/>
</linearGradient>
</defs>
</svg>
